<svg xmlns="http://www.w3.org/2000/svg" viewBox="0 0 192 192">
  <defs>
    <linearGradient id="bg" x1="0" y1="0" x2="1" y2="1">
      <stop offset="0" stop-color="#1f7a63"/>
      <stop offset="1" stop-color="#145042"/>
    </linearGradient>
    <linearGradient id="chart" x1="0" y1="1" x2="1" y2="0">
      <stop offset="0" stop-color="#f4a261"/>
      <stop offset="1" stop-color="#ffd166"/>
    </linearGradient>
  </defs>

  <rect width="192" height="192" rx="36" fill="url(#bg)"/>

  <rect x="28" y="36" width="136" height="120" rx="14" fill="#ffffff" opacity="0.96"/>
  <rect x="40" y="48" width="112" height="16" rx="8" fill="#dcefe9"/>
  <circle cx="50" cy="56" r="3" fill="#1f7a63"/>
  <circle cx="60" cy="56" r="3" fill="#2a9d8f"/>
  <circle cx="70" cy="56" r="3" fill="#f4a261"/>

  <line x1="46" y1="132" x2="146" y2="132" stroke="#d5ddd9" stroke-width="4" stroke-linecap="round"/>
  <line x1="46" y1="132" x2="46" y2="74" stroke="#d5ddd9" stroke-width="4" stroke-linecap="round"/>

  <rect x="56" y="106" width="14" height="26" rx="5" fill="#2a9d8f"/>
  <rect x="78" y="94" width="14" height="38" rx="5" fill="#2fba9d"/>
  <rect x="100" y="82" width="14" height="50" rx="5" fill="#34caa9"/>
  <rect x="122" y="70" width="14" height="62" rx="5" fill="url(#chart)"/>

  <path d="M55 93 76 84 98 88 120 72 138 76" fill="none" stroke="#f4a261" stroke-width="5" stroke-linecap="round" stroke-linejoin="round"/>
  <circle cx="138" cy="76" r="5" fill="#f4a261"/>
</svg>
